<svg width="21" height="25" viewBox="0 0 21 25" fill="none" xmlns="http://www.w3.org/2000/svg">
<path d="M6.50822 19.0646L7.28872 19.3322L13.5527 0.774069L12.7615 0.50651C11.6083 0.146665 3.68741 -2.02457 0.617633 6.56808C-2.31121 15.9648 6.10545 18.9037 6.5075 19.0646H6.50822ZM10.4207 1.72555C10.9165 1.81927 11.2864 2.30287 11.1154 2.80508L8.89193 9.43325C7.32163 13.9689 0.742112 11.3033 2.67869 6.55949C4.64389 1.74558 8.66514 1.3936 10.4207 1.72555ZM14.4935 5.96643L13.713 5.69887L7.44897 24.257L8.2402 24.5246C8.84113 24.7306 17.3143 27.0564 20.3841 18.463C23.3129 9.06625 14.8655 6.1045 14.4942 5.96643H14.4935ZM10.581 23.3055C10.0852 23.2118 9.71535 22.7282 9.88633 22.226L12.1098 15.5978C13.6801 11.0622 20.2596 13.7278 18.323 18.4716C16.3578 23.2855 12.3366 23.6382 10.581 23.3055Z" fill="white"/>
</svg>
